# xmcd
#
# Track frame offsets:
#	150
#	18499
#	41676
#	62162
#	71295
#	93743
#	114791
#	132660
#	158361
#	178405
#	201292
#	212955
#	236304
#
# Disc length: 3420
#
# Revision: 2
# Processed by: cddbd v1.5.1PL0 Copyright (c) Steve Scherf et al.
# Submitted via: CDex 1.50beta10
# Normalized: r1:TDELIM( - )
#
DISCID=b70d5a0d
DTITLE=Compilation Jazz - Life is Jazz
DYEAR=2003
DGENRE=Jazz
TTITLE0=Eric Le Lann - Squeezer
TTITLE1=Bibo - Sunday Night
TTITLE2=Metropolitan Jazz Affair - Corovon
TTITLE3=SoSo - SoSo Theme
TTITLE4=03 Cocktail - Madame Mope
TTITLE5=Metropolitan Jazz Affair - Yunowhathislifeez (Shabada Mix)
TTITLE6=Uusi Fantasia - Meikuu
TTITLE7=Rinne Radio - Tammi
TTITLE8=The Most - Little Nile
TTITLE9=Eric Le Lann - Escape from the Trump Tower
TTITLE10=The Most - The Plot
TTITLE11=Eddie Roberts - Roughneck
TTITLE12=Eric Le Lann - Finisterre
EXTD=YEAR: 2003
EXTT0=
EXTT1=
EXTT2=
EXTT3=
EXTT4=
EXTT5=
EXTT6=
EXTT7=
EXTT8=
EXTT9=
EXTT10=
EXTT11=
EXTT12=
PLAYORDER=
